# xmcd CD database file
#
# Track frame offsets:
#	150
#	16680
#	31706
#	48986
#	65144
#	84424
#	103174
#	119817
#	138784
#	156737
#	175145
#	191720
#	208270
#	229160
#	245147
#	261820
#	282878
#	300231
#	315736
#
# Disc length: 4394 seconds
#
# Revision: 0
# Processed by: cddbd v1.5.2PL0 Copyright (c) Steve Scherf et al.
# Submitted via: CDex 1.51
#
DISCID=12112813
DTITLE=Jamie Warren - Make Me Believe
DYEAR=2005
DGENRE=Country
TTITLE0=Life Happens
TTITLE1=I Saw Her Standing There
TTITLE2=She Kissed Me
TTITLE3=You're My Everything
TTITLE4=Make Me Believe
TTITLE5=Sunny Day In The Park
TTITLE6=One Step Back
TTITLE7=Words You Can't Take Back
TTITLE8=The Way Love Goes
TTITLE9=Ready to Run
TTITLE10=Fallen Angel
TTITLE11=Cried All The Way Home
TTITLE12=The Secret
TTITLE13=What Goes Around Comes Around
TTITLE14=Without You
TTITLE15=She'll Find Someone To Love Her
TTITLE16=Watching Her Sleep
TTITLE17=What A Woman Wants to Hear And a Man Can't Say
TTITLE18=Where's The Love
EXTD=YEAR: 2005
EXTT0=
EXTT1=
EXTT2=
EXTT3=
EXTT4=
EXTT5=
EXTT6=
EXTT7=
EXTT8=
EXTT9=
EXTT10=
EXTT11=
EXTT12=
EXTT13=
EXTT14=
EXTT15=
EXTT16=
EXTT17=
EXTT18=
PLAYORDER=
